<?xml version="1.0" encoding="UTF-8"?>
<!DOCTYPE svg PUBLIC "-//W3C//DTD SVG 1.1//EN" "http://www.w3.org/Graphics/SVG/1.1/DTD/svg11.dtd">
<svg xmlns="http://www.w3.org/2000/svg" version="1.1" width="24px" height="24px" style="shape-rendering:geometricPrecision; text-rendering:geometricPrecision; image-rendering:optimizeQuality; fill-rule:evenodd; clip-rule:evenodd" xmlns:xlink="http://www.w3.org/1999/xlink">
<g><path style="opacity:0.831" fill="#000000" d="M 6.5,-0.5 C 9.83333,-0.5 13.1667,-0.5 16.5,-0.5C 19.1667,1.5 21.5,3.83333 23.5,6.5C 23.5,9.83333 23.5,13.1667 23.5,16.5C 21.5,19.1667 19.1667,21.5 16.5,23.5C 13.1667,23.5 9.83333,23.5 6.5,23.5C 3.83333,21.5 1.5,19.1667 -0.5,16.5C -0.5,13.1667 -0.5,9.83333 -0.5,6.5C 1.5,3.83333 3.83333,1.5 6.5,-0.5 Z M 10.5,4.5 C 12.2554,5.07217 13.9221,5.9055 15.5,7C 12.8333,7.66667 10.1667,7.66667 7.5,7C 8.94227,6.62325 9.94227,5.78991 10.5,4.5 Z M 4.5,9.5 C 6.9413,10.5566 9.27463,11.89 11.5,13.5C 13.583,12.0413 15.7497,10.7079 18,9.5C 18.6667,11.5 18.6667,13.5 18,15.5C 13.9215,16.6295 9.75483,16.7961 5.5,16C 4.57692,13.9592 4.24358,11.7925 4.5,9.5 Z"/></g>
</svg>
