<?xml version="1.0" encoding="UTF-8"?>
<!DOCTYPE svg PUBLIC "-//W3C//DTD SVG 1.1//EN" "http://www.w3.org/Graphics/SVG/1.1/DTD/svg11.dtd">
<svg xmlns="http://www.w3.org/2000/svg" version="1.1" width="24px" height="24px" style="shape-rendering:geometricPrecision; text-rendering:geometricPrecision; image-rendering:optimizeQuality; fill-rule:evenodd; clip-rule:evenodd" xmlns:xlink="http://www.w3.org/1999/xlink">
<g><path style="opacity:0.851" fill="#000000" d="M 6.5,-0.5 C 9.83333,-0.5 13.1667,-0.5 16.5,-0.5C 19.1667,1.5 21.5,3.83333 23.5,6.5C 23.5,9.83333 23.5,13.1667 23.5,16.5C 21.5,19.1667 19.1667,21.5 16.5,23.5C 13.1667,23.5 9.83333,23.5 6.5,23.5C 3.83333,21.5 1.5,19.1667 -0.5,16.5C -0.5,13.1667 -0.5,9.83333 -0.5,6.5C 1.5,3.83333 3.83333,1.5 6.5,-0.5 Z M 4.5,7.5 C 6.14856,8.71401 7.81523,10.0473 9.5,11.5C 10.8333,6.16667 12.1667,6.16667 13.5,11.5C 14.8448,10.6533 15.8448,9.4866 16.5,8C 17.1667,7.33333 17.8333,7.33333 18.5,8C 16.0062,10.4231 16.0062,12.7564 18.5,15C 16.5355,15.624 14.8689,15.124 13.5,13.5C 12.1397,15.8484 10.4731,16.0151 8.5,14C 6.76817,12.0281 5.43484,9.86143 4.5,7.5 Z"/></g>
</svg>
