<?xml version="1.0" encoding="UTF-8"?>
<!DOCTYPE svg PUBLIC "-//W3C//DTD SVG 1.1//EN" "http://www.w3.org/Graphics/SVG/1.1/DTD/svg11.dtd">
<svg xmlns="http://www.w3.org/2000/svg" version="1.1" width="24px" height="24px" style="shape-rendering:geometricPrecision; text-rendering:geometricPrecision; image-rendering:optimizeQuality; fill-rule:evenodd; clip-rule:evenodd" xmlns:xlink="http://www.w3.org/1999/xlink">
<g><path style="opacity:0.831" fill="#000000" d="M 7.5,-0.5 C 10.1667,-0.5 12.8333,-0.5 15.5,-0.5C 19.1667,1.16667 21.8333,3.83333 23.5,7.5C 23.5,10.1667 23.5,12.8333 23.5,15.5C 21.883,18.7843 19.5497,21.4509 16.5,23.5C 15.5,23.5 14.5,23.5 13.5,23.5C 13.3204,19.318 13.987,15.318 15.5,11.5C 14.5,11.5 13.5,11.5 12.5,11.5C 12.5,10.1667 12.5,8.83333 12.5,7.5C 13.9778,7.76202 15.3112,7.42869 16.5,6.5C 15.1866,4.11472 13.5199,3.94805 11.5,6C 10.5939,7.69946 10.2606,9.5328 10.5,11.5C 9.5,11.5 8.5,11.5 7.5,11.5C 7.5,12.5 7.5,13.5 7.5,14.5C 8.5,14.5 9.5,14.5 10.5,14.5C 10.5,17.5 10.5,20.5 10.5,23.5C 9.5,23.5 8.5,23.5 7.5,23.5C 3.83333,21.8333 1.16667,19.1667 -0.5,15.5C -0.5,12.8333 -0.5,10.1667 -0.5,7.5C 1.16667,3.83333 3.83333,1.16667 7.5,-0.5 Z"/></g>
</svg>
