<?xml version="1.0" encoding="UTF-8"?>
<!DOCTYPE svg PUBLIC "-//W3C//DTD SVG 1.1//EN" "http://www.w3.org/Graphics/SVG/1.1/DTD/svg11.dtd">
<svg xmlns="http://www.w3.org/2000/svg" version="1.1" width="24px" height="24px" style="shape-rendering:geometricPrecision; text-rendering:geometricPrecision; image-rendering:optimizeQuality; fill-rule:evenodd; clip-rule:evenodd" xmlns:xlink="http://www.w3.org/1999/xlink">
<g><path style="opacity:0.857" fill="#000000" d="M 6.5,-0.5 C 9.83333,-0.5 13.1667,-0.5 16.5,-0.5C 19.1667,1.5 21.5,3.83333 23.5,6.5C 23.5,9.83333 23.5,13.1667 23.5,16.5C 21.5,19.1667 19.1667,21.5 16.5,23.5C 13.1667,23.5 9.83333,23.5 6.5,23.5C 3.83333,21.5 1.5,19.1667 -0.5,16.5C -0.5,13.1667 -0.5,9.83333 -0.5,6.5C 1.5,3.83333 3.83333,1.5 6.5,-0.5 Z M 7.5,11.5 C 5.10456,9.75054 5.10456,8.08388 7.5,6.5C 8.30806,6.80762 8.97473,7.30762 9.5,8C 8.17723,8.81595 7.51056,9.98261 7.5,11.5 Z M 11.5,15.5 C 13.0174,15.4894 14.1841,14.8228 15,13.5C 17.043,15.0875 16.8764,16.4209 14.5,17.5C 13.2613,17.0576 12.2613,16.3909 11.5,15.5 Z"/></g>
</svg>
